<svg height="56" viewBox="0 0 56 56" width="56" xmlns="http://www.w3.org/2000/svg"><path d="m22.3736 55.75472-9.76-11.8336-11.816-9.7408 4.1856-4.1856c1.2096-1.2096 2.8176-1.8752 4.528-1.8752.5744 0 1.1456.0768 1.6992.2288l5.1424 1.416 3.656-3.656-16.7088-14.2336 4.2848-4.2848c1.232-1.232 2.8704-1.9104 4.6128-1.9104 1.0304 0 2.0576.248 2.9744.7184l16.2272 8.3216 11.8992-11.9008c1.3952-1.3936 3.248-2.1616 5.2192-2.1616s3.824.7664 5.2176 2.1616c1.3936 1.3936 2.1616 3.2464 2.1616 5.2176s-.768 3.824-2.1616 5.2192l-11.9136 11.912 7.7792 15.6352c1.2496 2.5136.7568 5.5344-1.2288 7.5184l-4.3168 4.3184-13.616-16.0896-3.6496 3.6496 1.4176 5.1424c.608 2.216-.0224 4.6016-1.648 6.2272zm-15.2528-21.8784 8.5152 7.0192 7.0416 8.5376.872-.8736c.5456-.544.7568-1.344.552-2.088l-2.072-7.5296 8.672-8.6736 13.6144 16.0912 1.0464-1.048c.6896-.6896.8624-1.7392.4272-2.6128l-9.1424-18.376 14.0784-14.0784c.5904-.5888.9152-1.3744.9152-2.208s-.3248-1.6192-.9152-2.208c-.5904-.5904-1.3744-.9152-2.208-.9152-.8352 0-1.6192.3248-2.208.9152l-14.0928 14.0928-18.9856-9.736c-.3232-.1648-.6704-.2496-1.0336-.2496-.6064 0-1.176.2368-1.6032.664l-1.024 1.024 16.7088 14.2336-8.6672 8.6672-7.5312-2.0704c-.1856-.0528-.3776-.0784-.5696-.0784-.5728 0-1.112.2224-1.5184.6288z"/></svg>
