<?xml version="1.0" encoding="UTF-8"?>
<svg width="59px" height="44px" viewBox="0 0 59 44" version="1.1" xmlns="http://www.w3.org/2000/svg" xmlns:xlink="http://www.w3.org/1999/xlink">
    <!-- Generator: Sketch 52.5 (67469) - http://www.bohemiancoding.com/sketch -->
    <title>Icons/.birds</title>
    <desc>Created with Sketch.</desc>
    <g id="Vapaaehtoisalusta-Layouts" stroke="none" stroke-width="1" fill="none" fill-rule="evenodd">
        <g id="HKI-Ikonit" transform="translate(-170.000000, -383.000000)" fill="#010202">
            <g id="Icons/.birds" transform="translate(170.000000, 382.000000)">
                <path d="M39.3134595,27.3167679 L37.7858919,25.8092679 C33.6621081,21.7399821 26.9534595,21.7399821 22.8312973,25.8092679 L21.306973,27.3103393 L19.7875135,25.8092679 C15.6637297,21.738375 8.95345946,21.7399821 4.82967568,25.8092679 L3.30372973,27.3167679 L0.259945946,24.2873036 L1.78589189,22.7798036 C7.10643243,17.530875 15.4804865,17.092125 21.306973,21.4651607 C27.1334595,17.092125 35.5091351,17.5292679 40.8296757,22.7798036 L42.3572432,24.2873036 L39.3134595,27.3167679 Z" id="Fill-20"></path>
                <path d="M55.8337297,44.4177321 L54.3045405,42.9102321 C50.3850811,39.038625 44.0056216,39.038625 40.0845405,42.9102321 L38.5634595,44.4113036 L37.0407568,42.9102321 C33.1212973,39.038625 26.7418378,39.038625 22.8207568,42.9102321 L21.2931892,44.4177321 L18.2494054,41.3866607 L19.776973,39.8807679 C24.8931892,34.831125 32.9412973,34.3955893 38.5634595,38.5725536 C44.1856216,34.3955893 52.2337297,34.831125 57.3499459,39.8807679 L58.8775135,41.3866607 L55.8337297,44.4177321 Z" id="Fill-22"></path>
                <path d="M55.8337297,10.2156429 L54.3045405,8.70814286 C50.3850811,4.83814286 44.0056216,4.83814286 40.0845405,8.70814286 L38.5634595,10.2092143 L37.0407568,8.70814286 C33.1212973,4.83814286 26.7418378,4.83814286 22.8207568,8.70814286 L21.2931892,10.2156429 L18.2494054,7.18617857 L19.776973,5.67867857 C24.8931892,0.629035714 32.9412973,0.1935 38.5634595,4.37207143 C44.1856216,0.1935 52.2337297,0.629035714 57.3499459,5.67867857 L58.8775135,7.18617857 L55.8337297,10.2156429 Z" id="Fill-24"></path>
            </g>
        </g>
    </g>
</svg>