<svg height="44" viewBox="0 0 59 44" width="59" xmlns="http://www.w3.org/2000/svg"><g fill="#010202" fill-rule="evenodd" transform="translate(0 -1)"><path d="m39.3134595 27.3167679-1.5275676-1.5075c-4.1237838-4.0692858-10.8324324-4.0692858-14.9545946 0l-1.5243243 1.5010714-1.5194595-1.5010714c-4.1237838-4.0708929-10.83405404-4.0692858-14.95783782 0l-1.52594595 1.5075-3.04378378-3.0294643 1.52594594-1.5075c5.32054054-5.2489286 13.69459461-5.6876786 19.52108111-1.3146429 5.8264865-4.3730357 14.2021621-3.9358928 19.5227027 1.3146429l1.5275675 1.5075z"/><path d="m55.8337297 44.4177321-1.5291892-1.5075c-3.9194594-3.8716071-10.2989189-3.8716071-14.22 0l-1.521081 1.5010715-1.5227027-1.5010715c-3.9194595-3.8716071-10.298919-3.8716071-14.22 0l-1.5275676 1.5075-3.0437838-3.0310714 1.5275676-1.5058928c5.1162162-5.0496429 13.1643243-5.4851786 18.7864865-1.3082143 5.6221621-4.1769643 13.6702702-3.7414286 18.7864864 1.3082143l1.5275676 1.5058928z"/><path d="m55.8337297 10.2156429-1.5291892-1.50750004c-3.9194594-3.87-10.2989189-3.87-14.22 0l-1.521081 1.50107144-1.5227027-1.50107144c-3.9194595-3.87-10.298919-3.87-14.22 0l-1.5275676 1.50750004-3.0437838-3.02946433 1.5275676-1.5075c5.1162162-5.04964286 13.1643243-5.48517857 18.7864865-1.30660714 5.6221621-4.17857143 13.6702702-3.74303572 18.7864864 1.30660714l1.5275676 1.5075z"/></g></svg>