<svg height="48" viewBox="0 0 46 48" width="46" xmlns="http://www.w3.org/2000/svg"><path d="m41.5525379 4.7328-.0486207 30.7616h-.0145862-36.43958617c.423-.8048 1.11503448-1.4656 1.98534483-1.8528l13.69158624-5.8816c3.5120344-1.5088 5.7793793-4.9264 5.7712758-8.704l-.004862-14.3232zm4.1165518-4.056h-23.2325863-.051862l.0064827 18.3808c.0032414 2.1616-1.2965517 4.12-3.3029655 4.9824l-13.70779308 5.8896c-2.98855173 1.3104-4.91231035 4.2352-4.91231035 7.4592v6.4528s3.67410345 3.4704 6.94627586 3.4704c2.46182759 0 3.79241377-.704 4.86531037-1.2704.8654483-.4592 1.4894138-.7904 2.9204827-.7904 1.431069 0 2.0582759.3312 2.9221035.7904 1.0712758.5664 2.4018621 1.2704 4.8653103 1.2704 2.4634483 0 3.7972759-.704 4.8669311-1.2704.8654482-.4592 1.4926551-.7904 2.9237241-.7904 1.4278276 0 2.0550345.3312 2.9204828.7904 1.0696551.5664 2.4034827 1.2704 4.8653103 1.2704 3.1554828 0 7.0354138-3.2336 7.0354138-3.2336zm-38.25475867 42.5792c-1.38406896 0-2.29003448-.664-2.83620689-1.2848v-2.4224h36.91120686s-.0016207 2.616-.0032413 2.616c-.5445518.5376-1.3176207 1.0352-2.9221035 1.0912-.0842759.0032-.1653103.0048-.2463448.0048-1.2576552 0-1.8621724-.3616-2.6757586-.7952-1.0712759-.5664-2.4034828-1.2704-4.8636897-1.2704-2.465069 0-3.7956552.704-4.8653103 1.2704-.867069.4592-1.4910345.7904-2.9253449.7904-1.4310689 0-2.0566551-.3312-2.9237241-.7904-1.0696552-.5664-2.4002414-1.2704-4.8636897-1.2704-2.4618275 0-3.7956551.704-4.8653103 1.2704-.86544828.4592-1.49103449.7904-2.92048277.7904z" fill="#010202" fill-rule="evenodd"/></svg>