<?xml version="1.0" encoding="UTF-8"?>
<svg width="16px" height="18px" viewBox="0 0 16 18" version="1.1" xmlns="http://www.w3.org/2000/svg" xmlns:xlink="http://www.w3.org/1999/xlink">
    <!-- Generator: Sketch 52.5 (67469) - http://www.bohemiancoding.com/sketch -->
    <title>noun_Calendar_1387521</title>
    <desc>Created with Sketch.</desc>
    <g id="Vapaaehtoisalusta-Layouts" stroke="none" stroke-width="1" fill="none" fill-rule="evenodd">
        <g id="2.1-HKI-Kuva-Vapaaehtoisalusta-Puistotalkoot-Admin-modal-v2" transform="translate(-535.000000, -474.000000)" fill="#000000">
            <g id="Group-7-Copy" transform="translate(397.000000, 215.000000)">
                <g id="noun_Calendar_1387521" transform="translate(138.000000, 259.000000)">
                    <g id="Group">
                        <path d="M14.5185185,1.8 L12.7407407,1.8 L12.7407407,0 L10.962963,0 L10.962963,1.8 L5.03703704,1.8 L5.03703704,0 L3.25925926,0 L3.25925926,1.8 L1.48148148,1.8 C0.663281852,1.8 0,2.47157288 0,3.3 L0,16.5 C0,17.3284271 0.663281852,18 1.48148148,18 L14.5185185,18 C15.3367181,18 16,17.3284271 16,16.5 L16,3.3 C16,2.47157288 15.3367181,1.8 14.5185185,1.8 Z M14.2222222,16.2 L1.77777778,16.2 L1.77777778,6 L14.2222222,6 L14.2222222,16.2 Z" id="Shape" fill-rule="nonzero"></path>
                        <rect id="Rectangle" x="7.11111111" y="7.8" width="1.77777778" height="1.8"></rect>
                        <rect id="Rectangle" x="3.55555556" y="7.8" width="1.77777778" height="1.8"></rect>
                        <rect id="Rectangle" x="10.6666667" y="7.8" width="1.77777778" height="1.8"></rect>
                        <rect id="Rectangle" x="7.11111111" y="11.4" width="1.77777778" height="1.8"></rect>
                        <rect id="Rectangle" x="3.55555556" y="11.4" width="1.77777778" height="1.8"></rect>
                        <rect id="Rectangle" x="10.6666667" y="11.4" width="1.77777778" height="1.8"></rect>
                    </g>
                </g>
            </g>
        </g>
    </g>
</svg>