<svg height="18" viewBox="0 0 16 18" width="16" xmlns="http://www.w3.org/2000/svg"><g fill-rule="evenodd"><path d="m14.5185185 1.8h-1.7777778v-1.8h-1.7777777v1.8h-5.92592596v-1.8h-1.77777778v1.8h-1.77777778c-.81819963 0-1.48148148.67157288-1.48148148 1.5v13.2c0 .8284271.66328185 1.5 1.48148148 1.5h13.03703702c.8181996 0 1.4814815-.6715729 1.4814815-1.5v-13.2c0-.82842712-.6632819-1.5-1.4814815-1.5zm-.2962963 14.4h-12.44444442v-10.2h12.44444442z" fill-rule="nonzero"/><path d="m7.111111 7.8h1.777778v1.8h-1.777778z"/><path d="m3.555556 7.8h1.777778v1.8h-1.777778z"/><path d="m10.666667 7.8h1.777778v1.8h-1.777778z"/><path d="m7.111111 11.4h1.777778v1.8h-1.777778z"/><path d="m3.555556 11.4h1.777778v1.8h-1.777778z"/><path d="m10.666667 11.4h1.777778v1.8h-1.777778z"/></g></svg>