<svg height="40" viewBox="0 0 40 40" width="40" xmlns="http://www.w3.org/2000/svg"><g transform="translate(0 -1)"><path d="m19.89088.98441539c-10.8656 0-19.6736 8.8926923-19.6736 19.86276921 0 10.9700769 8.808 19.8643846 19.6736 19.8643846s19.6752-8.8943077 19.6752-19.8643846c0-10.97007691-8.8096-19.86276921-19.6752-19.86276921m0 35.47061541c-8.5216 0-15.456-7.001077-15.456-15.6078462 0-8.6051538 6.9344-15.60623075 15.456-15.60623075 8.5232 0 15.4592 7.00107695 15.4592 15.60623075 0 8.6067692-6.936 15.6078462-15.4592 15.6078462"/><path d="m21.99856 10.8154846h-4.216v10.9135385l7.232 7.2983077 2.9792-3.0094616-5.9952-6.0512307z"/></g></svg>