<?xml version="1.0" encoding="UTF-8"?>
<svg width="46px" height="58px" viewBox="0 0 46 58" version="1.1" xmlns="http://www.w3.org/2000/svg" xmlns:xlink="http://www.w3.org/1999/xlink">
    <!-- Generator: Sketch 52.5 (67469) - http://www.bohemiancoding.com/sketch -->
    <title>Icons/.coffee</title>
    <desc>Created with Sketch.</desc>
    <g id="Vapaaehtoisalusta-Layouts" stroke="none" stroke-width="1" fill="none" fill-rule="evenodd">
        <g id="HKI-Ikonit" transform="translate(-746.000000, -239.000000)" fill="#010202">
            <g id="Icons/.coffee" transform="translate(745.000000, 239.000000)">
                <path d="M23.48768,20.7179222 L27.74208,20.7163111 C27.74208,17.1718667 30.60448,14.2879778 34.12448,14.2863667 L34.12448,10.0008111 C31.28128,10.0024222 28.60928,11.1173111 26.60128,13.1408667 C24.59168,15.1644222 23.48768,17.8565889 23.48768,20.7179222" id="Fill-52"></path>
                <path d="M19.19232,12.7488833 C25.65792,10.5883833 29.16032,8.02993889 29.16032,0.715494444 L24.90432,0.715494444 C24.90432,4.99299444 23.93312,6.64921667 17.84992,8.68243889 C11.38432,10.8429389 7.88192,13.3997722 7.88192,20.7158278 L12.13792,20.7158278 C12.13792,16.4383278 13.10912,14.7821056 19.19232,12.7488833" id="Fill-53"></path>
                <path d="M39.09232,27.5730389 C37.13712,27.5730389 35.38192,28.0853722 33.86032,29.0600944 L34.47952,25.00815 L1.14352,25.00815 L6.05712,57.1433722 L29.56912,57.1433722 L29.84432,55.3405389 C30.43152,51.65915 33.56592,49.9578167 37.19472,47.9842056 C41.51632,45.6352056 46.89552,42.7110389 46.89552,35.4288167 C46.89552,31.09815 43.39472,27.5730389 39.09232,27.5730389 Z M6.10512,29.2937056 L29.51952,29.2937056 L27.82352,40.3845944 C27.82352,40.3862056 27.82192,40.3894278 27.82192,40.3910389 L25.91632,52.8578167 L9.70672,52.8578167 L6.10512,29.2937056 Z M35.17232,44.2125944 C33.85392,44.93115 32.47472,45.6803167 31.18672,46.5664278 L32.02992,41.0403167 C33.18512,33.4519833 36.50672,31.8585944 39.09232,31.8585944 C41.04752,31.8585944 42.63952,33.4600389 42.63952,35.4288167 C42.63952,39.9254278 39.80272,41.69765 35.17232,44.2125944 Z" id="Fill-54"></path>
            </g>
        </g>
    </g>
</svg>