<svg height="58" viewBox="0 0 46 58" width="46" xmlns="http://www.w3.org/2000/svg"><path d="m23.48768 20.7179222 4.2544-.0016111c0-3.5444444 2.8624-6.4283333 6.3824-6.4299444v-4.2855556c-2.8432.0016111-5.5152 1.1165-7.5232 3.1400556-2.0096 2.0235555-3.1136 4.7157222-3.1136 7.5770555"/><path d="m19.19232 12.7488833c6.4656-2.1605 9.968-4.71894441 9.968-12.03338886h-4.256c0 4.2775-.9712 5.93372223-7.0544 7.96694445-6.4656 2.16050001-9.968 4.71733331-9.968 12.03338891h4.256c0-4.2775.9712-5.9337222 7.0544-7.9669445"/><path d="m39.09232 27.5730389c-1.9552 0-3.7104.5123333-5.232 1.4870555l.6192-4.0519444h-33.336l4.9136 32.1352222h23.512l.2752-1.8028333c.5872-3.6813889 3.7216-5.3827222 7.3504-7.3563333 4.3216-2.349 9.7008-5.2731667 9.7008-12.5553889 0-4.3306667-3.5008-7.8557778-7.8032-7.8557778zm-32.9872 1.7206667h23.4144l-1.696 11.0908888c0 .0016112-.0016.0048334-.0016.0064445l-1.9056 12.4667778h-16.2096zm29.0672 14.9188888c-1.3184.7185556-2.6976 1.4677223-3.9856 2.3538334l.8432-5.5261111c1.1552-7.5883334 4.4768-9.1817223 7.0624-9.1817223 1.9552 0 3.5472 1.6014445 3.5472 3.5702223 0 4.4966111-2.8368 6.2688333-7.4672 8.7837777z"/></svg>
