<?xml version="1.0" encoding="UTF-8"?>
<svg width="55px" height="41px" viewBox="0 0 55 41" version="1.1" xmlns="http://www.w3.org/2000/svg" xmlns:xlink="http://www.w3.org/1999/xlink">
    <!-- Generator: Sketch 52.5 (67469) - http://www.bohemiancoding.com/sketch -->
    <title>Icons/.comment</title>
    <desc>Created with Sketch.</desc>
    <g id="Vapaaehtoisalusta-Layouts" stroke="none" stroke-width="1" fill="none" fill-rule="evenodd">
        <g id="HKI-Ikonit" transform="translate(-742.000000, -662.000000)" fill="#010202">
            <g id="Icons/.comment" transform="translate(742.000000, 661.000000)">
                <path d="M43.5724559,5.15856923 C47.3205441,5.15856923 50.2614265,8.09210769 50.2614265,11.8398 L50.2614265,27.8692615 C50.2614265,31.7364923 47.4483382,34.5440308 43.5692206,34.5440308 L40.8968676,34.5456462 C38.4768676,34.5456462 36.1668676,35.2612615 34.2095147,36.5874923 C32.2505441,35.2612615 29.9405441,34.5456462 27.5205441,34.5456462 L24.8449559,34.5456462 L11.4686324,34.5440308 C7.59275,34.5440308 4.77966176,31.7364923 4.77966176,27.8692615 L4.77966176,11.8398 C4.77966176,8.09210769 7.71730882,5.15856923 11.4686324,5.15856923 L43.5724559,5.15856923 Z M43.5724559,1.15241538 L11.4686324,1.15241538 C5.48010294,1.15241538 0.767897059,5.85964615 0.767897059,11.8398 L0.767897059,27.8692615 C0.767897059,33.9221077 5.37657353,38.5501846 11.4686324,38.5501846 L24.8449559,38.5550308 L27.5205441,38.5550308 C29.6315735,38.5550308 31.6148088,39.3724154 33.1078971,40.8569538 L34.2095147,41.9521846 L35.3095147,40.8569538 C36.8009853,39.3724154 38.7858382,38.5550308 40.8968676,38.5550308 L43.5724559,38.5501846 C49.6645147,38.5501846 54.2731912,33.9221077 54.2731912,27.8692615 L54.2731912,11.8398 C54.2731912,5.85964615 49.5609853,1.15241538 43.5724559,1.15241538 Z" id="Fill-28"></path>
                <polygon id="Fill-30" points="12.0029412 16.5124615 43.0358824 16.5124615 43.0358824 12.5063077 12.0029412 12.5063077"></polygon>
                <polygon id="Fill-32" points="12.0029412 27.1982308 43.0358824 27.1982308 43.0358824 23.1920769 12.0029412 23.1920769"></polygon>
            </g>
        </g>
    </g>
</svg>