<svg height="41" viewBox="0 0 55 41" width="55" xmlns="http://www.w3.org/2000/svg"><path d="m43.5724559 5.15856923c3.7480882 0 6.6889706 2.93353846 6.6889706 6.68123077v16.0294615c0 3.8672308-2.8130883 6.6747693-6.6922059 6.6747693l-2.672353.0016154c-2.42 0-4.73.7156153-6.6873529 2.0418461-1.9589706-1.3262308-4.2689706-2.0418461-6.6889706-2.0418461h-2.6755882l-13.3763235-.0016154c-3.8758824 0-6.68897064-2.8075385-6.68897064-6.6747693v-16.0294615c0-3.74769231 2.93764706-6.68123077 6.68897064-6.68123077zm0-4.00615385h-32.1038235c-5.98852946 0-10.70073534 4.70723077-10.70073534 10.68738462v16.0294615c0 6.0528462 4.60867647 10.6809231 10.70073534 10.6809231l13.3763235.0048462h2.6755882c2.1110294 0 4.0942647.8173846 5.587353 2.301923l1.1016176 1.0952308 1.1-1.0952308c1.4914706-1.4845384 3.4763235-2.301923 5.5873529-2.301923l2.6755883-.0048462c6.0920588 0 10.7007353-4.6280769 10.7007353-10.6809231v-16.0294615c0-5.98015385-4.7122059-10.68738462-10.7007353-10.68738462z"/><path d="m12.0029412 16.5124615h31.0329412v-4.0061538h-31.0329412z"/><path d="m12.0029412 27.1982308h31.0329412v-4.0061539h-31.0329412z"/></svg>