<?xml version="1.0" encoding="UTF-8"?>
<svg width="40px" height="40px" viewBox="0 0 40 40" version="1.1" xmlns="http://www.w3.org/2000/svg" xmlns:xlink="http://www.w3.org/1999/xlink">
    <!-- Generator: Sketch 52.5 (67469) - http://www.bohemiancoding.com/sketch -->
    <title>Icons/.delete</title>
    <desc>Created with Sketch.</desc>
    <g id="Vapaaehtoisalusta-Layouts" stroke="none" stroke-width="1" fill="none" fill-rule="evenodd">
        <g id="HKI-Ikonit" transform="translate(-1133.000000, -796.000000)" fill="#010202">
            <g id="Icons/.delete" transform="translate(1133.000000, 795.000000)">
                <polygon id="Fill-37" points="25.34544 12.2478462 19.80944 17.8370769 14.27344 12.2478462 11.29424 15.2573077 16.83024 20.8465385 11.29424 26.4357692 14.27344 29.4452308 19.80944 23.8576154 25.34544 29.4452308 28.32624 26.4357692 22.79024 20.8465385 28.32624 15.2573077"></polygon>
                <path d="M19.8096,0.984415385 C8.944,0.984415385 0.136,9.87710769 0.136,20.8471846 C0.136,31.8172615 8.944,40.7115692 19.8096,40.7115692 C30.6752,40.7115692 39.4848,31.8172615 39.4848,20.8471846 C39.4848,9.87710769 30.6752,0.984415385 19.8096,0.984415385 M19.8096,36.4550308 C11.288,36.4550308 4.3536,29.4539538 4.3536,20.8471846 C4.3536,12.2420308 11.288,5.24095385 19.8096,5.24095385 C28.3328,5.24095385 35.2672,12.2420308 35.2672,20.8471846 C35.2672,29.4539538 28.3328,36.4550308 19.8096,36.4550308" id="Fill-38"></path>
            </g>
        </g>
    </g>
</svg>