<svg height="41" viewBox="0 0 63 41" width="63" xmlns="http://www.w3.org/2000/svg"><path d="m58.3607769 5.1635037c-2.4699231-2.43507407-5.7556154-3.77762963-9.2496923-3.77762963-4.3421538 0-7.1755384 1.80918519-8.8442308 3.43044445-.2035384-.18633333-.4103076-.36470371-.6235384-.5382963-1.6153846-1.37281481-4.0723846-2.72014815-7.5761539-2.87303703-.2051538-.01114815-.411923-.01751852-.6186923-.01751852-.0193846 0-.0371538-.0015926-.0565384-.0015926h-.0016154-.0016154c-.0193846 0-.0371538.0015926-.0549231.0015926-.2083846 0-.4151538.00637037-.6203077.01751852-3.5021538.15288888-5.9607692 1.50022222-7.5761538 2.87303703-.2132308.17359259-.4183846.35196297-.6219231.5382963-1.6703077-1.62125926-4.5036923-3.43044445-8.8458461-3.43044445-3.494077 0-6.77976928 1.34255556-9.24969235 3.77762963-5.09976924 5.0278148-5.09976924 13.2105556 0 18.2383704 2.35523077 2.3235926 4.50207692 4.1869259 6.57299995 5.9881481 2.8463077 2.4748889 5.5359231 4.8096297 8.3208462 7.9804815.2180769.2468519 1.0467692 1.2884074 1.5184615 1.8872222l1.6961539 2.1627408 1.6977692-2.1627408c.4716923-.5988148 1.2987692-1.6403703 1.5200769-1.8872222 1.898077-2.1627407 3.7525385-3.9368889 5.6441539-5.6314074 1.89 1.6945185 3.7460769 3.4670741 5.6457692 5.6314074.2213077.2468519 1.0467692 1.2884074 1.5184616 1.8872222l1.6977692 2.1627408 1.6977692-2.1627408c.4716923-.5988148 1.3003846-1.6403703 1.5168462-1.8872222 2.7865384-3.1708518 5.4745384-5.5055926 8.3208461-7.9804815 2.0725385-1.8012222 4.2177693-3.6645555 6.573-5.9881481 5.0997693-5.0278148 5.0997693-13.2105556 0-18.2383704m-35.8324615 29.3944815c-2.9626154-3.3635556-5.7475385-5.7858889-8.6923846-8.3451852-2.0256923-1.7598148-4.11761542-3.5753704-6.37753849-5.805-3.42461539-3.3778889-3.42461539-8.8723333.00161538-12.25022222 1.659-1.634 3.86238461-2.53540741 6.20953851-2.53540741.9918461 0 1.860923.13855556 2.6185384.36151852 4.5085385 1.04792592 6.2402308 5.03577781 6.2402308 5.03577781s1.7139231-3.94325929 6.1675384-5.01825929c.7737693-.23251852 1.6654616-.37903704 2.6928462-.37903704 2.3455385 0 4.5505385.90140741 6.2095385 2.537 3.4246153 3.37629633 3.4246153 8.87074073 0 12.24862963-2.2599231 2.2296296-4.3518462 4.0451852-6.3743077 5.805-2.948077 2.5592963-5.7313846 4.9816296-8.6956154 8.3451852m32.7939231-14.1501852c-2.2599231 2.2296296-4.3534616 4.0451852-6.3759231 5.8065926-2.9464616 2.5577037-5.7313846 4.9784444-8.694 8.3435926-1.9206923-2.1834445-3.7686923-3.9655556-5.6328462-5.6505185 1.9013077-1.6547037 3.8704616-3.3890371 6.0173077-5.5055926 4.1693077-4.1104815 4.9285385-10.3263704 2.2809231-15.20925929.9498462-1.05907407 2.8850769-2.57044444 6.1933846-2.57044444 2.3487692 0 4.5521539.90140741 6.2111539 2.537 3.4246153 3.37629633 3.4246153 8.87074073 0 12.24862963"/></svg>