<svg height="63" viewBox="0 0 32 63" width="32" xmlns="http://www.w3.org/2000/svg"><g fill="#010202" fill-rule="evenodd"><path d="m16.02048 5.136c-1.9008 0-3.4464 1.5456-3.4464 3.4464 0 1.8992 1.5456 3.4464 3.4464 3.4464 1.8992 0 3.4448-1.5472 3.4448-3.4464 0-1.9008-1.5456-3.4464-3.4448-3.4464m0-4.4944c4.3856 0 7.9408 3.5552 7.9408 7.9408 0 4.3872-3.5552 7.9408-7.9408 7.9408s-7.9408-3.5536-7.9408-7.9408c0-4.3856 3.5552-7.9408 7.9408-7.9408"/><path d="m8.22992 62.81712h15.5808v-14.2336h-4.4944v9.7392h-6.592v-9.7392h-4.4944z"/><path d="m4.73616 49.1016 4.928-20.8544c.4016-1.6992 1.9008-2.8848 3.6448-2.8848h5.4848c1.7504 0 3.2496 1.1904 3.6464 2.8944l4.8608 20.8384 4.3776-1.0208-4.8592-20.8384c-.8752-3.7504-4.176-6.368-8.0256-6.368h-5.4848c-3.8384 0-7.1376 2.6096-8.0192 6.3456l-4.928 20.8544z"/></g></svg>