<svg height="52" viewBox="0 0 42 52" width="42" xmlns="http://www.w3.org/2000/svg"><g fill="#010202" fill-rule="evenodd"><path d="m13.8015667 36.7339375-2.7934074-2.85025 26.5548888-27.096875 2.7934075 2.85025z"/><path d="m30.9779963.06825-26.55488889 27.096875 2.7934074 2.85025 26.55648149-27.09525z"/><path d="m.98151482 40.2377625 7.79892592-2.132-5.70944444-5.824z"/><path d="m41.7948852 51.484225c-3.619963 0-5.461-.433875-7.2399259-.8515-1.6355926-.39-3.182-.754-6.3608149-.754-3.1788148 0-4.7236296.364-6.3608148.752375-1.7773333.41925-3.6183703.853125-7.2447037.853125-3.6231481 0-5.46577775-.433875-7.24629627-.853125-1.63718519-.388375-3.18359259-.752375-6.36081481-.752375v-4.0105c3.62633333 0 5.46737037.4355 7.24629629.85475 1.63718519.388375 3.18359259.752375 6.36081479.752375s4.7220371-.364 6.3576297-.752375c1.7805185-.41925 3.6215555-.85475 7.2478888-.85475 3.627926 0 5.468963.4355 7.2494815.85475 1.634.388375 3.1772222.752375 6.3512593.752375z"/></g></svg>