<svg height="42" viewBox="0 0 44 42" width="44" xmlns="http://www.w3.org/2000/svg"><path d="m26.8190396 19.2763327c.4354897-.4751437 1.05281-.7460012 1.7001896-.7460012h2.6674323c1.3042563 0 2.5471033-.5495793 3.4186361-1.511846l9.3947024-10.37168548-1.421727-1.40997716-6.905228 6.84816004-1.0154665-1.0070743 6.7020978-7.04961146-1.4216348-1.40988571-7.108266 6.64670857-1.0155588-1.00698284 6.905228-6.84816001-1.4216347-1.40997715-10.4581162 9.31696883c-.9702856.86442147-1.5245369 2.09699697-1.5245369 3.39047427v2.812273c0 .6381886-.2697952 1.2470237-.743735 1.67864l-3.212002 2.9450499-19.78882755-19.6880142c-.61501516-.61002384-1.667272-.10945863-1.56344785.74719005.58163654 4.79834822 3.18415574 10.34096025 8.64995319 15.76158585l4.02111121 3.9879703h4.3315693l1.5452832 1.7626772-16.02653913 14.6947985 3.95204874 3.8844555 14.55188579-15.7534473 14.0033514 15.9729133 4.0509859-3.733024-15.2997701-15.2217912z" fill="#231f20" fill-rule="evenodd"/></svg>