<svg height="46" viewBox="0 0 60 46" width="60" xmlns="http://www.w3.org/2000/svg"><path d="m59.6708108 42.6333759c0-5.2834483-2.2135135-8.8181725-6.972973-11.1276552-4.2389189-2.0615173-15.9486486-6.9689655-18.381081-8.7744138 3.06-2.8588966 5.6643243-6.9138621 5.6643243-12.2799655 0-5.40500002-4.3832433-9.78734485-9.7897297-9.78734485-5.4064865 0-9.7897298 4.38234483-9.7897298 9.78734485 0 1.4343103.0421622 2.256.2886487 3.6044138h4.3118919c-.2027027-1.2771035-.2886487-2.0842069-.2886487-3.6044138 0-3.02582761 2.4518919-5.47468968 5.4778379-5.47468968 3.0275675 0 5.4778378 2.44886207 5.4778378 5.47468968 0 8.4292069-6.8967568 11.8277931-17.4227027 16.1906896-3.5254054 1.4586207-7.1691892 2.9707242-10.67513515 4.9155518-3.56432432 1.9821034-6.8627027 4.7972413-6.8627027 11.9444827v2.1555173h58.96540545zm-54.51567566-1.2868276c.43783783-3.1587242 1.95243243-4.5978966 4.51135135-6.0192414 3.29027031-1.8281379 17.64162161-7.6334483 20.51675671-9.9575172 2.8637838 2.3240689 17.1972973 8.0726551 20.6302703 10.011 2.7697297 1.5639655 4.1935135 3.1198275 4.4837838 5.9657586z" fill="#010202" fill-rule="evenodd"/></svg>