<?xml version="1.0" encoding="UTF-8"?>
<svg width="51px" height="63px" viewBox="0 0 51 63" version="1.1" xmlns="http://www.w3.org/2000/svg" xmlns:xlink="http://www.w3.org/1999/xlink">
    <!-- Generator: Sketch 52.5 (67469) - http://www.bohemiancoding.com/sketch -->
    <title>Icons/.handicap</title>
    <desc>Created with Sketch.</desc>
    <g id="Vapaaehtoisalusta-Layouts" stroke="none" stroke-width="1" fill="none" fill-rule="evenodd">
        <g id="HKI-Ikonit" transform="translate(-931.000000, -524.000000)" fill="#010202">
            <g id="Icons/.handicap" transform="translate(931.000000, 524.000000)">
                <path d="M34.5187375,48.9758769 C32.1624875,54.4455692 26.6959875,58.2885692 20.3406125,58.2885692 C11.8418625,58.2885692 4.9258625,51.4134923 4.9258625,42.9618 C4.9258625,37.3047231 8.0344875,32.3681077 12.6332375,29.7108 L12.6332375,24.8113385 C5.5222375,27.8078769 0.5204875,34.8138 0.5204875,42.9618 C0.5204875,53.8268769 9.4141125,62.6662615 20.3406125,62.6662615 C27.8513625,62.6662615 34.4017375,58.4921077 37.7622375,52.3536462 L34.5187375,48.9758769 Z" id="Fill-84"></path>
                <path d="M21.44415,28.7330077 L39.060775,28.7330077 L39.060775,24.3553154 L21.44415,24.3553154 L21.44415,17.4980077 C25.2369,16.5223154 28.049775,13.1009308 28.049775,9.03016154 C28.049775,4.20177692 24.0994,0.273161538 19.242275,0.273161538 C14.383525,0.273161538 10.43315,4.20177692 10.43315,9.03016154 C10.43315,13.1009308 13.2444,16.5223154 17.03715,17.4980077 L17.03715,33.1123154 L21.44415,33.1123154 L21.44415,28.7330077 Z M14.8369,9.03016154 C14.8369,6.61839231 16.811275,4.65246923 19.242275,4.65246923 C21.670025,4.65246923 23.6444,6.61839231 23.6444,9.03016154 C23.6444,11.4451615 21.670025,13.4110846 19.242275,13.4110846 C16.811275,13.4110846 14.8369,11.4451615 14.8369,9.03016154 Z" id="Fill-86"></path>
                <path d="M45.5144625,51.2017154 C44.3769625,48.1777154 43.0867125,44.7498692 39.1005875,41.8761 C36.0049625,39.6420231 32.2495875,38.9086385 28.9345875,38.2608692 C23.3657125,37.1737154 21.4189625,36.4952538 21.4433375,33.1433308 L17.0412125,33.1110231 C16.9859625,40.3915615 23.1414625,41.5917923 28.0863375,42.5577923 C31.0925875,43.1457923 34.2028375,43.7531769 36.5135875,45.4186385 C39.4272125,47.5186385 40.3355875,49.9352538 41.3885875,52.7347154 C42.5455875,55.8120231 43.8553375,59.2964077 47.9730875,62.2654846 L50.5584625,58.7197154 C47.5164625,56.5260231 46.5885875,54.0609462 45.5144625,51.2017154" id="Fill-88"></path>
            </g>
        </g>
    </g>
</svg>