<svg height="63" viewBox="0 0 51 63" width="51" xmlns="http://www.w3.org/2000/svg"><g fill="#010202" fill-rule="evenodd"><path d="m34.5187375 48.9758769c-2.35625 5.4696923-7.82275 9.3126923-14.178125 9.3126923-8.49875 0-15.41475-6.8750769-15.41475-15.3267692 0-5.6570769 3.108625-10.5936923 7.707375-13.251v-4.8994615c-7.111 2.9965384-12.11275 10.0024615-12.11275 18.1504615 0 10.8650769 8.893625 19.7044615 19.820125 19.7044615 7.51075 0 14.061125-4.1741538 17.421625-10.3126153z"/><path d="m21.44415 28.7330077h17.616625v-4.3776923h-17.616625v-6.8573077c3.79275-.9756923 6.605625-4.3970769 6.605625-8.46784616 0-4.82838462-3.950375-8.757-8.8075-8.757-4.85875 0-8.809125 3.92861538-8.809125 8.757 0 4.07076926 2.81125 7.49215386 6.604 8.46784616v15.6143077h4.407zm-6.60725-19.70284616c0-2.41176923 1.974375-4.37769231 4.405375-4.37769231 2.42775 0 4.402125 1.96592308 4.402125 4.37769231 0 2.41499996-1.974375 4.38092306-4.402125 4.38092306-2.431 0-4.405375-1.9659231-4.405375-4.38092306z"/><path d="m45.5144625 51.2017154c-1.1375-3.024-2.42775-6.4518462-6.413875-9.3256154-3.095625-2.2340769-6.851-2.9674615-10.166-3.6152308-5.568875-1.0871538-7.515625-1.7656154-7.49125-5.1175384l-4.402125-.0323077c-.05525 7.2805384 6.10025 8.4807692 11.045125 9.4467692 3.00625.588 6.1165 1.1953846 8.42725 2.8608462 2.913625 2.1 3.822 4.5166153 4.875 7.3160769 1.157 3.0773077 2.46675 6.5616923 6.5845 9.5307692l2.585375-3.5457692c-3.042-2.1936923-3.969875-4.6587692-5.044-7.518"/></g></svg>