<svg height="57" viewBox="0 0 54 57" width="54" xmlns="http://www.w3.org/2000/svg"><g fill="#010202" fill-rule="evenodd" transform="translate(0 -1)"><path d="m47.1078235 37.7164333 3.8613236 3.8457223 2.8373529-2.8275-26.7639706-26.6542223-26.76235293 26.6558334 2.83735294 2.8258889 3.85808824-3.8457223v19.8005556h40.13220585zm-24.0770588 15.8033889h8.0251471v-13.2932778h-8.0251471zm12.0385294 0v-17.2888333h-16.0519117v17.2888333h-8.0267648v-19.8005555l16.0519118-15.9870556 16.0519118 15.9870556v19.8005555z"/><path d="m43.7635 22.8953389h4.0117647c0-3.4896667-1.8085294-5.2892778-3.2627941-6.7376667-1.2585294-1.2518333-2.09-2.0799444-2.09-3.915 0-1.8382778.8298529-2.66477776 2.0883823-3.91661109 1.4558824-1.44677778 3.2644118-3.24961111 3.2644118-6.7425h-4.0117647c0 1.83666667-.8314706 2.66477778-2.0883824 3.915-1.4558823 1.45-3.267647 3.25122222-3.267647 6.74411109 0 3.4945 1.8133823 5.2957222 3.267647 6.7425 1.2585295 1.2518334 2.0883824 2.0767222 2.0883824 3.9101667"/></g></svg>