<svg height="46" viewBox="0 0 46 46" width="46" xmlns="http://www.w3.org/2000/svg"><path d="m23.6917276 4.02952069c10.5944483 0 19.2116552 8.61882761 19.2116552 19.21327591 0 10.5944482-8.6172069 19.2148965-19.2116552 19.2148965s-19.21327588-8.6204483-19.21327588-19.2148965c0-10.5944483 8.61882758-19.21327591 19.21327588-19.21327591m0-3.39048276c-12.4841724 0-22.60375863 10.11958617-22.60375863 22.60375867 0 12.4841724 10.11958623 22.6053793 22.60375863 22.6053793s22.6021379-10.1212069 22.6021379-22.6053793c0-12.4841725-10.1179655-22.60375867-22.6021379-22.60375867"/><path d="m2.66927586 24.9391724h42.04393104v-3.3904827h-42.04393104z"/><path d="m21.996 44.7958621h3.3904828v-43.10548279h-3.3904828z"/><path d="m20.3474345 2.04952414c-6.1699655 5.44389655-9.6528276 13.01737926-9.6528276 21.19375866 0 7.9511034 3.2932414 15.3317241 9.1471724 20.7399655 1.8767586.282 3.8183448.4294827 5.806931.4294827.4829656 0 .9643104-.0097241 1.4440345-.025931 6.1326897-5.4406552 9.5944828-12.993069 9.5944828-21.1435172 0-8.3497931-3.6303448-16.07237935-10.0466552-21.53896556-.329-.00810345-.6596207-.01458621-.9918621-.01458621-1.8135517 0-3.5833448.12317242-5.3012758.35979311m12.9493103 21.19375866c0 7.6593793-3.482862 14.7255862-9.6058276 19.5763103-6.1229655-4.8507241-9.6058275-11.916931-9.6058275-19.5763103 0-7.6593794 3.482862-14.72558625 9.6058275-19.57631039 6.1229656 4.85072414 9.6058276 11.91693099 9.6058276 19.57631039"/><path d="m40.1613379 10.9871414c-10.8326896 1.8313793-22.1045862 1.8313793-32.93889652 0h-2.41158621l-.611 2.9010345c6.38389653 1.2430689 12.94444823 1.8702758 19.49041383 1.8702758 6.5524482 0 13.1097586-.6272069 19.4936551-1.8702758l-.611-2.9010345z"/><path d="m7.22049655 35.5000724c10.83268965-1.8313793 22.10458625-1.8313793 32.94051725 0h2.4115862l.611-2.9010345c-6.3855172-1.2446896-12.9444483-1.8718965-19.4920345-1.8718965-6.5508276 0-13.1081379.6272069-19.49365516 1.8718965l.611 2.9010345z"/></svg>
