<svg height="59" viewBox="0 0 58 59" width="58" xmlns="http://www.w3.org/2000/svg"><path d="m23.87425 47.0190811c-3.1706667 0-5.7403889 2.5864865-5.7403889 5.7778378 0 3.1913514 2.5697222 5.7778379 5.7403889 5.7778379s5.7403889-2.5864865 5.7403889-5.7778379c0-3.1913513-2.5697222-5.7778378-5.7403889-5.7778378"/><path d="m44.3152222 47.0190811c-3.1722778 0-5.7403889 2.5864865-5.7403889 5.7778378 0 3.1913514 2.5681111 5.7778379 5.7403889 5.7778379 3.1706667 0 5.7403889-2.5864865 5.7403889-5.7778379 0-3.1913513-2.5697222-5.7778378-5.7403889-5.7778378"/><path d="m57.3048056 28.2058378h.0451111v-1.1318919-3.1718918-1.1108109c0-2.0513513-.9296111-3.9437837-2.5503889-5.1827027l-2.0670556-1.5843243c-.3270555-.2497297-.4962222-.6632432-.4398333-1.0767567l.2642222-1.9394595c.2738889-2.0108108-.3270555-4.03945946-1.6497778-5.56702703-1.3211111-1.52432432-3.2238333-2.39837838-5.22-2.39837838-.319 0-.6412222.02108109-.9602222.06648649l-1.9220555.26756757c-.4011667.05513513-.8087778-.11675676-1.0536667-.44432433l-1.566-2.0854054c-1.2308889-1.63783784-3.1062222-2.58-5.1491111-2.58h-5.4423334v23.63513518h-14.181l-1.4822222-5.2816217c-1.305-4.5097297-5.47455553-7.6605405-10.14033331-7.6605405h-2.93383333v4.3135135h2.93383333c2.77272222 0 5.25061111 1.872973 6.02072222 4.5356757l3.59438889 12.8075675c1.6465556 5.8670271 7.0276667 9.9632433 13.0854444 9.9632433h15.4521667c8.1167778 0 14.7835556-6.3518919 15.3619445-14.3740541zm-23.4255556-23.62378375h1.16c.6831111 0 1.3130556.31621622 1.7271111.86594595l1.566 2.08702703c1.0166111 1.35567567 2.6325556 2.16648648 4.3177778 2.16648648.2465 0 .4962222-.01945946.7395-.05189189l1.9236667-.26756757c.8909444-.12486486 1.7738333.21243244 2.3635.89351355.5171666.5983783.7411111 1.3572973.6347777 2.1454054l-.2642222 1.9427027c-.2658333 1.9524324.5348889 3.9016216 2.0912222 5.0935135l2.0654445 1.5827027c.5461666.42.8603333 1.0572973.8603333 1.7513513v1.1010811h-19.1851111zm8.0636111 33.68432435h-15.4521667c-4.1486111 0-7.8332222-2.8054054-8.961-6.8237838l-.9054444-3.2254054h36.3821111c-.5703333 5.6351351-5.3134444 10.0491892-11.0635 10.0491892z"/></svg>