<svg height="35" viewBox="0 0 40 35" width="40" xmlns="http://www.w3.org/2000/svg"><path d="m28.55168 4.33459091c1.8192 0 3.5248.70318182 4.8112 1.98068182 1.2816 1.27431818 1.9856 2.97340909 1.9856 4.78227277 0 1.8120454-.704 3.5095454-1.9856 4.7838636-2.1744 2.1604545-4.1952 3.9311364-6.1536 5.6477273-2.48 2.1715909-4.8416 4.2461363-7.3184 6.9013636-2.4736-2.6552273-4.8384-4.7297727-7.3184-6.9013636-1.9584-1.7165909-3.9808-3.4888637-6.152-5.6477273-1.2816-1.2743182-1.9872-2.9718182-1.9872-4.7838636 0-1.80886368.7056-3.50795459 1.9872-4.78227277 1.2848-1.2775 2.992-1.98068182 4.8112-1.98068182 6.128 0 8.664 7.19409089 8.664 7.19409089s2.5344-7.19409089 8.656-7.19409089m0-4.19204546c-5.2048 0-7.8272 3.14681819-8.656 4.38454546-.8336-1.23772727-3.4592-4.38454546-8.664-4.38454546-2.9456 0-5.712 1.13909091-7.792 3.20886364-2.0768 2.06818182-3.224 4.81727273-3.224 7.74613641 0 2.9320454 1.1472 5.6811363 3.224 7.7477272 2.264 2.2511364 4.3392 4.0711364 6.3456 5.8275 2.8272 2.4802273 5.4976 4.8188637 8.2992 8.0325.3216.3675 1.5328 1.9202273 1.5456 1.9361364l.2608.3388636.2624-.3388636c.0128-.0159091 1.224-1.5686364 1.5456-1.9361364 2.8016-3.2136363 5.472-5.5522727 8.2992-8.0325 2.0064-1.7563636 4.0816-3.5763636 6.344-5.8275 2.0784-2.0665909 3.224-4.8156818 3.224-7.7477272 0-2.92886368-1.1456-5.67795459-3.224-7.74613641-2.08-2.06977273-4.8448-3.20886364-7.7904-3.20886364" fill="#010202" fill-rule="evenodd"/></svg>