<svg height="29" viewBox="0 0 55 29" width="55" xmlns="http://www.w3.org/2000/svg"><path d="m27.4999598 24.9966277c-7.9983512 0-14.8508506-3.0577505-20.47944507-8.5739325 2.87114727-.0951926 4.82810757-.7409412 6.46480877-1.2860255 1.2847381-.4274413 2.2996698-.7647595 3.5102976-.7647595 2.197718 0 3.3250623.6389894 4.6309632 1.3799307 1.4422122.8177068 3.0749705 1.7452513 5.8707201 1.7452513 2.827534 0 4.4616603-.9261765 5.903792-1.7531371 1.2914168-.7369984 2.406852-1.3720449 4.5966037-1.3720449 1.2133637 0 2.2307899.3386861 3.5181834.7687024 1.6354137.5437968 3.5884311 1.1907525 6.4516926 1.2940722-5.6352732 5.5068478-12.4772314 8.5619429-20.4676163 8.5619429m-15.0030139-18.03565864c1.9582478-1.95687987 3.7510552-3.21651215 6.880341-3.21651215 3.7377782 0 4.3663068 1.87488387 8.1240408 1.87488387 3.7576535 0 4.3874697-1.85243354 8.1253283-1.87488387 3.1252624-.01456455 4.9167823 1.25826434 6.880341 3.21651215 1.8946788 1.89604672 1.8761713 1.85243354 6.003008 5.73585714-2.5417149-.0317845-4.1943486-.5808921-5.7992653-1.1154352-1.4171064-.472342-2.8831368-.9619039-4.7050734-.9619039-3.1834401 0-4.9974104 1.0347267-6.4542676 1.8656301-1.2357335.7051334-2.2122825 1.2609198-4.0461281 1.2609198-1.8047165 0-2.7786101-.5544185-4.018367-1.2569769-1.4673179-.8322714-3.2919098-1.869573-6.4833162-1.869573-1.8193616 0-3.2800812.4869065-4.6945322.9578806-1.6036292.5293127-3.25489498 1.0810757-5.79660986 1.1061815 4.10832926-3.8701466 4.09110926-3.82782089 5.98450056-5.72258014m32.6628911-2.64624168c-2.3815854-2.37506748-5.1602759-4.31472738-8.9231598-4.31472738-4.9883176 0-5.9885239 1.87488387-8.7327745 1.87488387-2.7441702 0-3.7523427-1.87488387-8.1266158-1.87488387-4.3743535 0-7.156826 1.9330616-9.54114721 4.31472738-2.52191998 2.51395373-9.83613969 10.05581492-9.83613969 10.05581492 4.99741042 6.8802605 13.7473245 14.3825319 27.5026152 14.3825319s22.4906402-7.5022714 27.4973848-14.3825319c0 0-7.3168751-7.54186119-9.840163-10.05581492" /></svg>