<svg height="63" viewBox="0 0 30 63" width="30" xmlns="http://www.w3.org/2000/svg"><path d="m15.6930158 5.98752c-1.9383158 0-3.5144211 1.5456-3.5144211 3.4464 0 1.8992 1.5761053 3.4448 3.5144211 3.4448 1.9366842 0 3.5127895-1.5456 3.5127895-3.4448 0-1.9008-1.5761053-3.4464-3.5127895-3.4464m0-4.496c4.4721579 0 8.0975263 3.5568 8.0975263 7.9424s-3.6253684 7.9408-8.0975263 7.9408-8.09752633-3.5552-8.09752633-7.9408 3.62536843-7.9424 8.09752633-7.9424"/><path d="m7.74853158 63.6688h15.88668422v-18.6864h-4.5814737v14.192h-6.7221053v-14.192h-4.58310522z"/><path d="m1.17930526 44.94064h4.58310527v-14.9808c0-2.0656 1.71152631-3.7472 3.81789473-3.7472h12.22378944c2.1063685 0 3.8178948 1.6816 3.8178948 3.7472v14.9808h4.5847368v-14.9808c0-4.5456-3.7705789-8.2416-8.4026316-8.2416h-12.22378944c-4.63205263 0-8.401 3.696-8.401 8.2416z"/></svg>
