<svg height="41" viewBox="0 0 26 41" width="26" xmlns="http://www.w3.org/2000/svg"><g fill="#010202" fill-rule="evenodd"><path d="m22.8434294.98441539h-19.53370587c-1.539 0-2.78735294 1.2696923-2.78735294 2.83499999v34.05715382c0 1.5653077 1.24835294 2.835 2.78735294 2.835h19.53370587c1.5405882 0 2.787353-1.2696923 2.787353-2.835v-34.05715382c0-1.56530769-1.2467648-2.83499999-2.787353-2.83499999zm-18.13605881 35.47061541h16.73841181v-31.21407695h-16.73841181z"/><path d="m13.0767353 33.6169615c1.5421765 0 2.7921176-1.2696923 2.7921176-2.8382307 0-1.5669231-1.2499411-2.8366154-2.7921176-2.8366154-1.5405882 0-2.7905294 1.2696923-2.7905294 2.8366154 0 1.5685384 1.2499412 2.8382307 2.7905294 2.8382307"/></g></svg>