<?xml version="1.0" encoding="UTF-8"?>
<svg width="26px" height="41px" viewBox="0 0 26 41" version="1.1" xmlns="http://www.w3.org/2000/svg" xmlns:xlink="http://www.w3.org/1999/xlink">
    <!-- Generator: Sketch 52.5 (67469) - http://www.bohemiancoding.com/sketch -->
    <title>Icons/.mobile-version</title>
    <desc>Created with Sketch.</desc>
    <g id="Vapaaehtoisalusta-Layouts" stroke="none" stroke-width="1" fill="none" fill-rule="evenodd">
        <g id="HKI-Ikonit" transform="translate(-187.000000, -795.000000)" fill="#010202">
            <g id="Icons/.mobile-version" transform="translate(187.000000, 795.000000)">
                <path d="M22.8434294,0.984415385 L3.30972353,0.984415385 C1.77072353,0.984415385 0.522370588,2.25410769 0.522370588,3.81941538 L0.522370588,37.8765692 C0.522370588,39.4418769 1.77072353,40.7115692 3.30972353,40.7115692 L22.8434294,40.7115692 C24.3840176,40.7115692 25.6307824,39.4418769 25.6307824,37.8765692 L25.6307824,3.81941538 C25.6307824,2.25410769 24.3840176,0.984415385 22.8434294,0.984415385 Z M4.70737059,36.4550308 L21.4457824,36.4550308 L21.4457824,5.24095385 L4.70737059,5.24095385 L4.70737059,36.4550308 Z" id="Fill-35"></path>
                <path d="M13.0767353,33.6169615 C14.6189118,33.6169615 15.8688529,32.3472692 15.8688529,30.7787308 C15.8688529,29.2118077 14.6189118,27.9421154 13.0767353,27.9421154 C11.5361471,27.9421154 10.2862059,29.2118077 10.2862059,30.7787308 C10.2862059,32.3472692 11.5361471,33.6169615 13.0767353,33.6169615" id="Fill-36"></path>
            </g>
        </g>
    </g>
</svg>