<svg height="63" viewBox="0 0 41 63" width="41" xmlns="http://www.w3.org/2000/svg"><path d="m35.5828846 29.6794615c0-1.05.7059231-1.9723846 1.8512308-3.3874615 1.4086154-1.7333077 3.1596923-3.8914615 3.1596923-7.1173846 0-5.5569231-4.7153077-7.77-7.2482308-8.9605385-.5750769-.26976921-1.2260769-.57346152-1.4522307-.75276921-.554077-.43130769-1.1453077-1.41023077-1.772077-2.44407692-1.5992307-2.64761539-4.0190769-6.64569231-9.5776154-6.64569231-5.6473846 0-7.9703076 4.032-9.504923 6.69576923-.5912308 1.02415385-1.14692311 1.98853846-1.67192311 2.40853846-.22130769.17769231-.93207692.50561539-1.50230769.77053845-2.57653846 1.1889231-7.371 3.4052308-7.371 8.9282308 0 3.2259231 1.75107692 5.3840769 3.15807692 7.1173846 1.14853846 1.4150769 1.85123077 2.3374615 1.85123077 3.3874615 0 .7931539-.252 1.184077-.88038461 2.0676923-.8303077 1.1743847-1.96915385 2.7784616-1.96915385 5.7636924 0 4.8413076 4.06753846 7.8556153 8.00099997 10.7746153 3.9803077 2.9496923 7.7393077 5.7362308 7.7393077 10.130077v.0064615 4.2597692h4.3001539v-4.2662307c0-4.3938462 3.759-7.1803847 7.7393077-10.130077 3.9318461-2.919 8.001-5.9333077 8.001-10.7746153 0-2.9852308-1.1372308-4.5893077-1.9707693-5.7636924-.6267692-.8836153-.8803846-1.2745384-.8803846-2.0676923m-2.625 4.5521539c.6833077.966 1.1776154 1.6638461 1.1776154 3.2792308 0 2.6783076-2.9012308 4.8283846-6.2612308 7.3225384-1.7510769 1.2971539-3.5926154 2.6621539-5.1805384 4.2436154v-5.5197692l6.5423077-6.5455385-3.0385385-3.0385385-3.5037692 3.5053847v-8.2449231l7.9622307-7.9654616-3.0385384-3.0401538-4.9236923 4.9269231v-10.5694616h-4.3001539v10.5694616l-4.9236923-4.9269231-3.0385384 3.0401538 7.9622307 7.9654616v8.2449231l-3.5053846-3.5053847-3.0369231 3.0385385 6.5423077 6.5455385v5.5197692c-1.5895384-1.5814615-3.4294615-2.9464615-5.1789231-4.2436154-3.36161534-2.4941538-6.26446149-4.6442308-6.26446149-7.3225384 0-1.6153847.49430769-2.3132308 1.17761538-3.2792308.74630769-1.05 1.67192308-2.3584616 1.67192308-4.5521539 0-2.6298461-1.49261539-4.4697692-2.81076923-6.0932307-1.17923077-1.4554616-2.19853846-2.709-2.19853846-4.4116154 0-1.5733846.36023077-2.94 4.87684615-5.0286923.94176927-.4361539 1.75592307-.8109231 2.38430767-1.3149231 1.1566154-.9256154 1.9093846-2.2340769 2.7073846-3.61684615 1.6299231-2.82853847 2.8333847-4.54407693 5.7846923-4.54407693 2.9254616 0 4.1806154 1.72523077 5.901 4.57153846.8367693 1.37953842 1.6283077 2.68800002 2.801077 3.60392312.609.4765384 1.3811538.84 2.2728461 1.2583846 2.7962308 1.3149231 4.7766923 2.4456923 4.7766923 5.0706923 0 1.7026154-1.0176923 2.9561538-2.1985384 4.4116154-1.3149231 1.6234615-2.8107693 3.4633846-2.8107693 6.0932307 0 2.1936923.9272308 3.5021539 1.6719231 4.5521539" /></svg>
