<svg height="55" viewBox="0 0 48 55" width="48" xmlns="http://www.w3.org/2000/svg"><path d="m24.3736 4.82192c4.7888 0 8.6832 3.8976 8.6832 8.6832 0 4.7888-3.8944 8.6832-8.6832 8.6832s-8.6832-3.8944-8.6832-8.6832c0-4.7856 3.8944-8.6832 8.6832-8.6832m0-4.1664c-7.0976 0-12.8512 5.752-12.8512 12.8496s5.7536 12.8528 12.8512 12.8528c7.0992 0 12.8512-5.7552 12.8512-12.8528s-5.752-12.8496-12.8512-12.8496"/><path d="m35.48928 33.9984c4.5968 0 8.336 3.7392 8.336 8.336v8.336h-38.9024v-8.3344c0-4.5984 3.7392-8.3376 8.336-8.3376zm0-4.1664h-22.2304c-6.9056 0-12.504 5.5984-12.504 12.504v12.5024h47.2368v-12.504c0-6.904-5.5984-12.5024-12.5024-12.5024z"/></svg>
