<svg height="48" viewBox="0 0 37 48" width="37" xmlns="http://www.w3.org/2000/svg"><path d="m18.6903087 10.81712c-3.9477391 0-7.1474348 3.1824-7.1474348 7.1088 0 3.9248 3.1996957 7.1072 7.1474348 7.1072s7.1458261-3.1824 7.1458261-7.1072c0-3.9264-3.198087-7.1088-7.1458261-7.1088m0 10.6624c-1.9722609 0-3.5745217-1.5952-3.5745217-3.5536 0-1.96 1.6022608-3.5552 3.5745217-3.5552 1.9706522 0 3.572913 1.5952 3.572913 3.5552 0 1.9584-1.6022608 3.5536-3.572913 3.5536"/><path d="m31.4498391 5.35936c-3.5230434-3.4704-8.1432174-5.2048-12.7617826-5.2048-4.6153478 0-9.23391302 1.7344-12.7569565 5.2048-7.04769565 6.9392-6.56991304 17.7536 0 25.1312 6.7436522 7.5776 10.3503478 12.304 12.7569565 17.0528 2.4194783-4.7488 6.0165218-9.4752 12.7617826-17.0528 6.5699131-7.3776 7.046087-18.192 0-25.1312m-2.6752608 22.776c-4.625 5.1936-7.7619566 9.048-10.0833044 12.4528-2.3116956-3.3952-5.4534782-7.2512-10.08491303-12.4528-2.664-2.9936-4.15847826-6.6928-4.20834783-10.4208-.05147826-3.7744 1.34808696-7.1728 4.04747826-9.8304 2.7331739-2.6912 6.3720435-4.1744 10.2425652-4.1744 3.8737392 0 7.511 1.4832 10.2473913 4.1744 2.6961739 2.6576 4.0957392 6.056 4.0474783 9.8304-.0498696 3.728-1.5443478 7.4272-4.2083478 10.4208"/></svg>