<svg height="26" viewBox="0 0 40 26" width="40" xmlns="http://www.w3.org/2000/svg"><path d="m36.2343345 8.80317575c.3574129.96330432.549866 2.07284085.549866 3.33317915 0 5.6664961-4.653699 10.2792066-10.374138 10.2792066v3.2079679c7.4937568 0 13.5899375-6.0503554 13.5899375-13.4871745 0-8.25297723-4.7792517-12.1363549-9.9250808-12.1363549-4.7755859 0-8.4771003 3.8605289-8.4771003 8.10217535 0 4.23999395 3.4465673 7.67718815 7.6981235 7.67718815 4.2541298 0 7.9354824-3.4382835 7.9354824-7.67718815zm-21.5978188 0c.3583293.96330432.549866 2.07284085.549866 3.33317915 0 5.6664961-4.6546155 10.2792066-10.37413802 10.2792066v3.2079679c7.49375672 0 13.58993742-6.0503554 13.58993742-13.4871745 0-8.25297723-4.7801681-12.1363549-9.92508073-12.1363549-4.77558595 0-8.47710037 3.8605289-8.47710037 8.10217535 0 4.23999395 3.44656733 7.67718815 7.69812358 7.67718815 4.25321332 0 7.93456592-3.4382835 7.93456592-7.67718815z"/></svg>