<?xml version="1.0" encoding="UTF-8"?>
<svg width="40px" height="26px" viewBox="0 0 40 26" version="1.1" xmlns="http://www.w3.org/2000/svg" xmlns:xlink="http://www.w3.org/1999/xlink">
    <!-- Generator: Sketch 52.5 (67469) - http://www.bohemiancoding.com/sketch -->
    <title>Icons/.quote</title>
    <desc>Created with Sketch.</desc>
    <g id="Vapaaehtoisalusta-Layouts" stroke="none" stroke-width="1" fill="none" fill-rule="evenodd">
        <g id="HKI-Ikonit" transform="translate(-179.000000, -1034.000000)" fill="#000000">
            <g id="Icons/.quote" transform="translate(179.000000, 1034.000000)">
                <g id="quote">
                    <path d="M36.2343345,8.80317575 C36.5917474,9.76648007 36.7842005,10.8760166 36.7842005,12.1363549 C36.7842005,17.802851 32.1305015,22.4155615 26.4100625,22.4155615 L26.4100625,25.6235294 C33.9038193,25.6235294 40,19.573174 40,12.1363549 C40,3.88337767 35.2207483,0 30.0749192,0 C25.2993333,0 21.5978189,3.8605289 21.5978189,8.10217535 C21.5978189,12.3421693 25.0443862,15.7793635 29.2959424,15.7793635 C33.5500722,15.7793635 37.2314248,12.34108 37.2314248,8.10217535 L36.2343345,8.80317575 Z M14.6365157,8.80317575 C14.994845,9.76648007 15.1863817,10.8760166 15.1863817,12.1363549 C15.1863817,17.802851 10.5317662,22.4155615 4.81224368,22.4155615 L4.81224368,25.6235294 C12.3060004,25.6235294 18.4021811,19.573174 18.4021811,12.1363549 C18.4021811,3.88337767 13.622013,0 8.47710037,0 C3.70151442,0 0,3.8605289 0,8.10217535 C6.51172118e-16,12.3421693 3.44656733,15.7793635 7.69812358,15.7793635 C11.9513369,15.7793635 15.6326895,12.34108 15.6326895,8.10217535 L14.6365157,8.80317575 Z" id="Shape" fill-rule="nonzero"></path>
                </g>
            </g>
        </g>
    </g>
</svg>