<svg height="53" viewBox="0 0 51 53" width="51" xmlns="http://www.w3.org/2000/svg"><path d="m34.7282 11.4932909c-.173875 0-.34125.0112424-.508625.0160606v-11.39178786h-7.50425c-5.6095 0-10.1725 4.5130303-10.1725 10.05715156v1.3362424c-.17225-.0048182-.33475-.0176667-.511875-.0176667h-16.024125v36.9570606h16.024125c4.236375 0 6.45775 1.3282121 8.126625 2.7993637l1.031875 1.0198484.024375-.0256969c.05525.054606.1105.1108181.164125.1670303 1.86875-1.8469697 4.008875-3.9605455 9.35025-3.9605455h16.0225v-36.9570606zm-13.862875-1.3185757c0-3.18963641 2.624375-5.78503035 5.85-5.78503035h3.180125v24.76545455h-3.18175c-2.16775 0-4.18925.6954242-5.848375 1.8726667zm0 29.0568484c.034125-1.8790909.95875-3.5477878 2.351375-4.611v9.6572425l-.641875-.6327879c-.98475-.9748788-1.659125-2.6580303-1.7095-4.2416061zm-16.536 4.9466667v-28.4128182h11.701625c.177125 0 .34125.0096364.511875.0160606l-.00325 23.4324243c0 1.7393636.44525 3.5060303 1.230125 5.0333939-.550875-.0449697-1.129375-.0690606-1.73875-.0690606zm42.098875 0h-11.7c-3.040375 0-5.3625.5685455-7.187375 1.3844242v-12.1353939h6.67875v-17.6473939c.16575-.0064243.333125-.0144546.508625-.0144546h11.7z"/></svg>
