<svg height="57" viewBox="0 0 45 57" width="45" xmlns="http://www.w3.org/2000/svg"><path d="m42.2173448 22.3714056c-2.4067241-2.5616667-5.712931-3.973-9.3270689-3.973-2.324069.0032222-4.6141035.6009444-6.6172759 1.7271111-.8767931.493-1.8718966.7523889-2.8815862.7523889-1.0096897 0-2.0064138-.2593889-2.8848276-.7523889-2.0047931-1.1261667-4.2932069-1.7238889-6.6318621-1.7271111-3.597931 0-6.90575858 1.4113333-9.31248272 3.973-2.45372414 2.61-3.71462069 6.2237222-3.46341379 9.9147777.23337931 3.4365 1.31762069 6.2301667 2.36944827 8.9287778.62882759 1.6191667 1.28034483 3.2947222 1.76979311 5.1491111 1.98210344 7.5351667 5.39365513 10.6107778 11.76458623 10.6107778 2.2446551 0 4.4277241-.5429444 6.3887586-1.5772778 1.9594138 1.0343334 4.1408621 1.5772778 6.3855172 1.5772778 6.3741724 0 9.7808621-3.0756111 11.7662069-10.6107778.4894483-1.8543889 1.1393449-3.5299444 1.7714138-5.1491111 1.0469655-2.6986111 2.1328276-5.4922778 2.3678276-8.9287778.2512069-3.6910555-1.0096896-7.3047777-3.4650345-9.9147777m-.8362758 9.6247777c-.1912414 2.7888334-1.0712759 5.0524445-2.0906897 7.6737223-.6725862 1.7319444-1.3662414 3.5202777-1.9172759 5.6082777-1.3224827 5.0202223-2.7973103 7.4078889-7.5961724 7.4078889-1.8556896 0-3.6514138-.5397222-5.1878276-1.5627778l-1.1976896-.7975-1.1993104.7975c-1.5380344 1.0230556-3.3321379 1.5627778-5.1894482 1.5627778-3.8248276 0-5.9365862-1.1084444-7.59455175-7.4078889-.55103448-2.088-1.24793104-3.8763333-1.92051724-5.6082777-1.0194138-2.6212778-1.89944828-4.8848889-2.08906897-7.6737223-.1717931-2.5487777.64827586-4.9267777 2.31272414-6.699 1.58503448-1.6836111 3.77134482-2.6132222 6.17320692-2.6132222 1.6077241.0032222 3.1198276.3963333 4.5006551 1.1728889 1.5218276.8555 3.2543449 1.3066111 5.0063104 1.3066111 1.7487241 0 3.4796207-.4511111 5.0046896-1.3066111 1.3775863-.7765556 2.8929311-1.1696667 4.512-1.1728889 2.3872759 0 4.5752069.9296111 6.1618621 2.6132222 1.6628276 1.7722223 2.4861379 4.1502223 2.3111035 6.699"/><path d="m23.7549345 15.0820944c3.8232069 0 7.9981034-.0982777 10.9542414-3.0369444 3.1635862-3.14166667 3.0517586-7.67211111 3.0517586-11.68055556-.2641724 0-.5315862-.00161111-.799-.00161111-3.8232069 0-7.9964828.09827778-10.9526207 3.03694445-3.1635862 3.14488889-3.0517586 7.67372222-3.0517586 11.68216662z"/></svg>
