<svg height="40" viewBox="0 0 40 40" width="40" xmlns="http://www.w3.org/2000/svg"><path d="m25.6586538.08942308c-5.5157136-.00277037-10.5426697 3.16274275-12.923617 8.13810151-2.3809473 4.97535881-1.6925517 10.87594121 1.7697709 15.16959081l-14.48942308 14.4875 2.1701923 2.1711538 14.49230768-14.4884615c4.9020293 3.9518222 11.8096656 4.2398857 17.0237015.7099254s7.5122026-10.0504549 5.663776-16.0696001c-1.8484266-6.01914523-7.4101404-10.12593952-13.7067083-10.12109454zm0 25.58173072c-6.2163896 0-11.2557692-5.0393795-11.2557692-11.2557692 0-6.21638968 5.0393796-11.25576922 11.2557692-11.25576922 6.2163897 0 11.2557693 5.03937954 11.2557693 11.25576922-.0063581 6.2140656-5.0417048 11.2502726-11.2557693 11.2576923z"/></svg>