<svg height="40" viewBox="0 0 41 40" width="41" xmlns="http://www.w3.org/2000/svg"><path d="m34.1472923 26.7375231c-2.0079231 0-3.8187692.8351538-5.1094615 2.1743077l-13.427077-6.72c.0597693-.3683077.092077-.7446923.092077-1.1307693 0-.3844615-.0323077-.7624615-.092077-1.1323846l13.4319231-6.7119231c1.2906923 1.3375385 3.0999231 2.1694616 5.1046154 2.1694616 3.9173077 0 7.0947692-3.1758462 7.0947692-7.09315386 0-3.92053846-3.1774615-7.09638462-7.0947692-7.09638462s-7.0963846 3.17584616-7.0963846 7.09638462c0 .378.0323077.75276923.0904615 1.11461538l-13.44 6.71838458c-1.2906923-1.3310769-3.0934615-2.1581538-5.09492305-2.1581538-3.9156923 0-7.09153846 3.1758461-7.09153846 7.0931538 0 3.9189231 3.17584616 7.0947693 7.09153846 7.0947693 2.00146155 0 3.80746155-.8303077 5.09653845-2.1597693l13.4367692 6.7264616c-.0565384.3618461-.0888461.7317692-.0888461 1.1097692 0 3.9156923 3.1790769 7.0931539 7.0963846 7.0931539s7.0947692-3.1774616 7.0947692-7.0931539c0-3.9189231-3.1774615-7.0947692-7.0947692-7.0947692m0-21.28269233c1.5653077 0 2.8382308 1.27130769 2.8382308 2.83823077 0 1.56369231-1.2729231 2.83661536-2.8382308 2.83661536s-2.8382308-1.27292305-2.8382308-2.83661536c0-1.56692308 1.2729231-2.83823077 2.8382308-2.83823077m-25.54084615 18.44446153c-1.56207692 0-2.835-1.2729231-2.835-2.8382308 0-1.5636923 1.27292308-2.8382307 2.835-2.8382307 1.56692305 0 2.83984615 1.2745384 2.83984615 2.8382307 0 1.5653077-1.2729231 2.8382308-2.83984615 2.8382308m25.54084615 12.768c-1.5653077 0-2.8382308-1.2729231-2.8382308-2.835 0-1.5653077 1.2729231-2.8382308 2.8382308-2.8382308s2.8382308 1.2729231 2.8382308 2.8382308c0 1.5620769-1.2729231 2.835-2.8382308 2.835" fill="#010202" fill-rule="evenodd" transform="translate(-1 -1)"/></svg>