<svg height="40" viewBox="0 0 40 40" width="40" xmlns="http://www.w3.org/2000/svg"><g fill-rule="nonzero"><circle cx="12.825899" cy="16.096883" r="2.769305"/><circle cx="27.22494" cy="16.096883" r="2.769305"/><path d="m20.02494 3.35731415c9.1616307 0 16.6177459 7.45515585 16.6177459 16.61582735 0 9.1606714-7.4532375 16.6139089-16.6148682 16.6139089-9.1616306 0-16.61390883-7.4532375-16.61390883-16.6139089 0-9.1606715 7.45035973-16.61582735 16.61103113-16.61582735zm0-3.32278178c-11.00815343.00191847-19.9366906 8.92757794-19.9366906 19.93860913 0 11.0110312 8.92853717 19.9366906 19.9366906 19.9366906 11.0081535 0 19.9376499-8.9266187 19.9376499-19.9366906 0-11.01007196-8.9266187-19.93669066-19.9376499-19.93669066z"/><path d="m20.02494 32.1016787c-4.6488777.020493-8.8950905-2.6345098-10.91223017-6.8230216l2.98705037-1.4551559c1.4748796 3.031553 4.5505344 4.9555497 7.9218225 4.9555497s6.446943-1.9239967 7.9218226-4.9555497l2.9870503 1.4561151c-2.0167318 4.1856183-6.2594099 6.8396711-10.9055156 6.8220624z"/></g></svg>
