<?xml version="1.0" encoding="UTF-8"?>
<svg width="40px" height="40px" viewBox="0 0 40 40" version="1.1" xmlns="http://www.w3.org/2000/svg" xmlns:xlink="http://www.w3.org/1999/xlink">
    <!-- Generator: Sketch 52.5 (67469) - http://www.bohemiancoding.com/sketch -->
    <title>Icons/.smile</title>
    <desc>Created with Sketch.</desc>
    <g id="Vapaaehtoisalusta-Layouts" stroke="none" stroke-width="1" fill="none" fill-rule="evenodd">
        <g id="HKI-Ikonit" transform="translate(-366.000000, -1028.000000)" fill="#000000">
            <g id="Icons/.smile" transform="translate(366.000000, 1028.000000)">
                <g id="smile">
                    <circle id="Oval" fill-rule="nonzero" cx="12.8258993" cy="16.0968825" r="2.76930456"></circle>
                    <circle id="Oval" fill-rule="nonzero" cx="27.22494" cy="16.0968825" r="2.76930456"></circle>
                    <path d="M20.02494,3.35731415 C29.1865707,3.35731415 36.6426859,10.81247 36.6426859,19.9731415 C36.6426859,29.1338129 29.1894484,36.5870504 20.0278177,36.5870504 C10.8661871,36.5870504 3.41390887,29.1338129 3.41390887,19.9731415 C3.41390887,10.81247 10.8642686,3.35731415 20.02494,3.35731415 Z M20.02494,0.0345323741 C9.01678657,0.0364508393 0.0882494005,8.96211031 0.0882494005,19.9731415 C0.0882494005,30.9841727 9.01678657,39.9098321 20.02494,39.9098321 C31.0330935,39.9098321 39.9625899,30.9832134 39.9625899,19.9731415 C39.9625899,8.96306954 31.0359712,0.0364508393 20.02494,0.0364508393 L20.02494,0.0345323741 Z" id="Shape" fill-rule="nonzero"></path>
                    <path d="M20.02494,32.1016787 C15.3760623,32.1221717 11.1298495,29.4671689 9.11270983,25.2786571 L12.0997602,23.8235012 C13.5746398,26.8550542 16.6502946,28.7790509 20.0215827,28.7790509 C23.3928708,28.7790509 26.4685257,26.8550542 27.9434053,23.8235012 L30.9304556,25.2796163 C28.9137238,29.4652346 24.6710457,32.1192874 20.02494,32.1016787 Z" id="Shape" fill-rule="nonzero"></path>
                </g>
            </g>
        </g>
    </g>
</svg>