<svg height="40" viewBox="0 0 39 40" width="39" xmlns="http://www.w3.org/2000/svg"><path d="m18.0925875.98441539c0 4.63453846-1.889875 8.8296923-4.944875 11.86823081l-7.193875 7.1496923c-3.055 3.036923-4.98875 7.5616153-4.98875 12.1945384l20.024875 8.5146923c0-4.6345384 1.889875-8.8296923 4.944875-11.8682307l7.193875-7.1529231c3.05825-3.0369231 4.944875-7.5583846 4.944875-12.19292309zm13.88075 15.24438461c-.3965-.3973846-.949-.6219231-1.508-.6219231-.563875 0-1.11475.2261539-1.5145.6235385-.398125.399-.62725.945-.62725 1.5055384 0 .5621539.229125 1.1097693.62725 1.5071539.0975.0969231.208.1857692.325.2616923l-6.368375 6.3290769c-2.51225 2.499-4.314375 5.5149231-5.308875 8.8054616l-12.06725-5.1304616c.51675-2.4699231 1.727375-4.7847692 3.4515-6.4954615l7.19225-7.1513077c.65325-.6477692 1.256125-1.3310769 1.81025-2.0466923.3965.3957692.949.6235384 1.508.6235384.56225 0 1.11475-.2277692 1.512875-.6267692.39975-.3941538.6305-.945.6305-1.5023077 0-.5605384-.23075-1.1097692-.6305-1.5039231-.2275-.2293846-.508625-.3973846-.8125-.5023846.52-1.04353843.95225-2.12746151 1.29025-3.24369228l12.033125 5.12723078c-.294125 1.4328461-.8255 2.8059231-1.54375 4.0416923z"/><path d="m25.93825 13.1217692c-1.05625-.5282307-2.34325-.1017692-2.873.9482308-.52975 1.0483846-.10075 2.3277692.953875 2.856.30875.1534615.637.2229231.960375.2229231.784875 0 1.53725-.4264616 1.91425-1.1727693.528125-1.0516153.102375-2.331-.9555-2.8543846"/></svg>
