<svg height="55" viewBox="0 0 53 55" width="53" xmlns="http://www.w3.org/2000/svg"><path d="m26.3919121.53560294c-14.1574242 0-25.63433331 11.55970586-25.63433331 25.81926466v2.8664706c2.35930303-2.365 5.45257576-3.5475 8.54424242-3.5475 3.09327269 0 6.18493939 1.1825 8.54424239 3.5475 1.8148485-1.8198529 4.0617273-2.9344117 6.4097879-3.3566176v22.0048529c0 3.5588236 2.8748485 6.4544118 6.4081818 6.4544118 3.5333334 0 6.4081819-2.8955882 6.4081819-6.4544118h-4.2721213c0 1.187353-.9572121 2.1514706-2.1360606 2.1514706-1.1772424 0-2.1360606-.9641176-2.1360606-2.1514706v-22.0048529c2.3464546.4222059 4.5933334 1.5383823 6.4065758 3.3566176 2.359303-2.365 5.4525757-3.5475 8.5442424-3.5475 3.0932727 0 6.1849394 1.1825 8.5442424 3.5475v-2.8664706c0-14.2595588-11.4736969-25.81926466-25.6311212-25.81926466m17.0868788 20.83529416c-3.0627576 0-5.9986364.8379411-8.5442424 2.4102941-2.5456061-1.572353-5.4798788-2.4102941-8.5442424-2.4102941-3.0627576 0-5.9986364.8379411-8.5442425 2.4102941-2.545606-1.572353-5.4798788-2.4102941-8.54424239-2.4102941-1.29287879 0-2.56487879.1488235-3.79190909.4383823 2.0750303-9.6864706 10.64978788-16.97235293 20.88199998-16.97235293 10.2306061 0 18.8037576 7.28588233 20.880394 16.97235293-1.2286364-.2895588-2.4990303-.4383823-3.7935152-.4383823" /></svg>
