<svg height="51" viewBox="0 0 51 51" width="51" xmlns="http://www.w3.org/2000/svg"><path d="m8.06965152 42.035825 3.02099998 3.056625 8.5442424-8.643375-3.021-3.056625z"/><path d="m20.1136606 50.7622375 4.1259697 1.119625 2.8957273-10.93625-4.1259697-1.118z"/><path d="m12.167997 25.8015875-10.80718185 2.929875 1.1049697 4.17625 10.80718185-2.933125z"/><path d="m51.4223667 12.5334625c0-3.01925-1.1627879-5.858125-3.2715455-7.995-2.1103636-2.133625-4.9161515-3.3085-7.9002121-3.3085-2.9824546 0-5.7898485 1.174875-7.9002121 3.3085l-9.5978182 9.712625h-17.05154547l32.85196967 33.239375v-17.242875l9.5978182-9.72075c2.1087576-2.136875 3.2715455-4.97575 3.2715455-7.993375zm-17.1414849 24.52125-18.2657273-18.481125h6.7374243l11.528303 11.674zm10.8473334-19.5845-8.7112728 8.827-9.7600303-9.884875 8.7144849-8.815625c1.3025151-1.3195 3.0354545-2.045875 4.8792121-2.045875 1.8421515 0 3.576697.726375 4.8776061 2.045875 2.6917575 2.721875 2.6917575 7.15 0 9.8735z"/></svg>