<?xml version="1.0" encoding="UTF-8"?>
<svg width="64px" height="40px" viewBox="0 0 64 40" version="1.1" xmlns="http://www.w3.org/2000/svg" xmlns:xlink="http://www.w3.org/1999/xlink">
    <!-- Generator: Sketch 52.5 (67469) - http://www.bohemiancoding.com/sketch -->
    <title>Icons/.wifi</title>
    <desc>Created with Sketch.</desc>
    <g id="Vapaaehtoisalusta-Layouts" stroke="none" stroke-width="1" fill="none" fill-rule="evenodd">
        <g id="HKI-Ikonit" transform="translate(-1119.000000, -1004.000000)" fill="#231F20">
            <g id="Icons/.wifi" transform="translate(1119.000000, 1004.000000)">
                <g id="Group-8">
                    <path d="M60.3693047,16.8227983 C52.784618,9.23811159 42.7003605,5.06108155 31.9739056,5.06108155 C21.247588,5.06108155 11.1633305,9.23811159 3.57864378,16.8227983 L0,13.2440172 C8.54056652,4.70345064 19.8957597,0 31.9739056,0 C44.0521888,0 55.407382,4.70345064 63.9479485,13.2440172 L60.3693047,16.8227983 Z" id="Fill-1"></path>
                    <path d="M52.6721373,24.4856309 C47.1425923,18.9560858 39.7908326,15.910867 31.9708841,15.910867 C24.151073,15.910867 16.799176,18.9560858 11.2697682,24.4856309 L7.69098712,20.9069871 C14.176412,14.4215622 22.7992446,10.8497854 31.9708841,10.8497854 C41.1426609,10.8497854 49.7653562,14.4215622 56.2507811,20.9068498 L52.6721373,24.4856309 Z" id="Fill-3"></path>
                    <path d="M44.9748326,32.1483262 C41.5005665,28.6739227 36.8811674,26.7606524 31.9677253,26.7606524 C27.0542833,26.7606524 22.4350215,28.6739227 18.960618,32.1483262 L15.3819742,28.5696824 C19.8122575,24.1393991 25.7024549,21.6995708 31.9677253,21.6995708 C38.2329957,21.6995708 44.1233305,24.1393991 48.5534764,28.5696824 L44.9748326,32.1483262 Z" id="Fill-5"></path>
                    <path d="M37.2775279,39.9425236 C34.3479485,37.0129442 29.5811845,37.0129442 26.6516052,39.9425236 L23.0729614,36.3637425 C27.9758283,31.4610129 35.9533047,31.4610129 40.8561717,36.3637425 L37.2775279,39.9425236 Z" id="Fill-7"></path>
                </g>
            </g>
        </g>
    </g>
</svg>