<svg height="55" viewBox="0 0 33 55" width="33" xmlns="http://www.w3.org/2000/svg"><path d="m18.722019 38.6656c7.7293334-.9424 13.7068572-6.8736 13.7068572-14.032 0-4.024-.9050476-7.5952-1.7793333-11.048-.8467619-3.352-1.6481905-6.5184-1.6481905-10.0176v-2.128h-24.86533335v2.128c0 3.4992-.79980953 6.6656-1.64657143 10.0176-.87428572 3.4528-1.77933333 7.024-1.77933333 11.048 0 7.1584 5.97590476 13.0896 13.70685711 14.032v12.4304l-11.53895235-.0016v4.256h27.38295235v-4.256l-11.5389524.0016zm-10.35866662-32.968h16.41228572c.2428571 3.1744.9795238 6.0864 1.6951429 8.9216.3173333 1.2512.6281904 2.4784.8920952 3.704-.6379048.176-1.1705714.392-1.6465714.5872-.8208572.336-1.4182858.5824-2.4690477.5824s-1.6449523-.2464-2.4674285-.5824c-1.0005715-.4096-2.244-.92-4.2111429-.92-1.9655238 0-3.2105714.5104-4.2095238.92-.8224762.336-1.4182857.5824-2.46904761.5824s-1.64657143-.2464-2.46742858-.5824c-.476-.1952-1.01028571-.4112-1.64819047-.5872.26390476-1.2256.5747619-2.4528.89371428-3.704.714-2.8352 1.45066667-5.7472 1.69514286-8.9216zm-3.34657143 18.936c0-.696.03561905-1.3792.09228572-2.0528.21371428.0784.42904762.1664.66219047.2608.98438096.4032 2.21.9072 4.11885715.9072 1.91047621 0 3.13285711-.504 4.11885711-.9072.8419048-.344 1.4506667-.5952 2.5597143-.5952s1.7178095.2512 2.5613333.5952c.984381.4032 2.208381.9072 4.1172381.9072 1.9104762 0 3.1344762-.504 4.1204762-.9072.2315238-.0944.4484762-.1824.6621905-.2608.0566667.6736.0906667 1.3568.0906667 2.0528 0 5.4656-5.1825715 9.9104-11.5519048 9.9104s-11.55190475-4.4448-11.55190475-9.9104z"/></svg>
