<svg height="49" viewBox="0 0 50 49" width="50" xmlns="http://www.w3.org/2000/svg"><g fill="#010202" fill-rule="evenodd"><path d="m8.13403226 14.7412903c0 3.3161291 2.68709674 6.0032258 6.00322584 6.0032258 3.3129032 0 6-2.6870967 6-6.0032258 0-3.3145161-2.6870968-6.00161288-6-6.00161288-3.3161291 0-6.00322584 2.68709678-6.00322584 6.00161288m8.00483874 0c0 1.1048387-.9 2-2.0016129 2-1.1048387 0-2.0016129-.8951613-2.0016129-2 0-1.1032258.8967742-1.9983871 2.0016129-1.9983871 1.1016129 0 2.0016129.8951613 2.0016129 1.9983871"/><path d="m41.4725806 8.74016129v-8.0016129h-4v8.0016129h-7.9967741v4.00000001h7.9967741v8.0016129h4v-8.0016129h8.0080646v-4.00000001z"/><path d="m37.4717742 44.7501613h-33.33387097v-40.00322582h29.33225807v-4.0016129h-33.33387098v48.00645162h41.33548388v-24.0064516h-4z"/><path d="m.13725807 33.4693548c2.31774193 1.5370968 4.94193548 3.2790323 9.24032258 3.2790323 4.29838705 0 6.92419355-1.7419355 9.24193545-3.2790323 2.067742-1.3725806 3.8548387-2.5564516 6.8080645-2.5564516 2.9532259 0 4.7387097 1.183871 6.8064517 2.5564516 2.3193548 1.5370968 4.9451612 3.2790323 9.2435483 3.2790323v-4.0016129c-3.0919354 0-4.9177419-1.2096774-7.032258-2.6096774-2.2774194-1.5129033-4.8580645-3.2241936-9.017742-3.2241936-4.1596774 0-6.7403225 1.7112903-9.0193548 3.2225807-2.1145161 1.4016129-3.9387097 2.6112903-7.03064515 2.6112903-3.09032259 0-4.91612904-1.2096774-7.02903226-2.6096774-2.27903226-1.5129033-1.15645162.3129032-2.21129032 3.332258"/></g></svg>